{
  "title": "Selma.2014.DVDScr.XVID.AC3.HQ.Hive-CM8",
  "uid": 11675794,
  "size": 1949737752,
  "categoryP": "video",
  "categoryS": "movies",
  "magnet": "?xt=urn:btih:9dcad142580f10480f2ce1aa19ac69251fb4d964&amp;dn=Selma.2014.DVDScr.XVID.AC3.HQ.Hive-CM8&amp;tr=udp%3A%2F%2Ftracker.openbittorrent.com%3A80&amp;tr=udp%3A%2F%2Fopen.demonii.com%3A1337&amp;tr=udp%3A%2F%2Ftracker.coppersurfer.tk%3A6969&amp;tr=udp%3A%2F%2Fexodus.desync.com%3A6969",
  "seeders": 668,
  "leechers": 79,
  "uploader": "xxxlavalxxx",
  "files": 4,
  "time": 1422865263,
  "description": " &lt;a href=&quot;http://www.imdb.com/title/tt1020072/&quot; rel=&quot;nofollow&quot; target=&quot;_NEW&quot;&gt;http://www.imdb.com/title/tt1020072/&lt;/a&gt;\n\nA chronicle of Dr. Martin Luther King, Jr.'s campaign to secure equal voting rights via an epic march from Selma to Montgomery, Alabama in 1965.\n\nDirector: Ava DuVernay\nWriter: Paul Webb\nStars: David Oyelowo, Carmen Ejogo, Tim Roth\nGenres: Biography | Drama | History\nCountry: UK | USA\nLanguage: English\n\n\nSelma.2014.DVDScr.XVID.AC3.HQ.Hive-CM8\nVideo: 720x304 @bitrate 1700 2pass\nAudio: English AC3 2.0 Stereo\nSample: yes included\nPS: Big hero 6 is next &lt;a href=&quot;\nhttp://www.imdb.com/title/tt1020072/&quot; rel=&quot;nofollow&quot; target=&quot;_NEW&quot;&gt;\nhttp://www.imdb.com/title/tt1020072/&lt;/a&gt;\nGeneral\nComplete name: Selma.2014.DVDScr.XVID.AC3.HQ.Hive-CM8.avi\nFormat: AVI\nFormat/Info: Audio Video Interleave\nFile size: 1.80 GiB\nDuration: 2h 8mn\nOverall bit rate: 2 009 Kbps\nWriting application: Nandub v1.0rc2\nWriting library: Nandub build 1853/release\n\nVideo\nID: 0\nFormat: MPEG-4 Visual\nFormat profile: Advanced Simple@L5\nFormat settings, BVOP: 2\nFormat settings, QPel: Yes\nFormat settings, GMC: No warppoints\nFormat settings, Matrix: Default (H.263)\nMuxing mode: Packed bitstream\nCodec ID: XVID\nCodec ID/Hint: XviD\nDuration: 2h 8mn\nBit rate: 1 741 Kbps\nWidth: 720 pixels\nHeight: 304 pixels\nDisplay aspect ratio: 2.35:1\nFrame rate: 29.970 fps\nColor space: YUV\nChroma subsampling: 4:2:0\nBit depth: 8 bits\nScan type: Progressive\nCompression mode: Lossy\nBits/(Pixel*Frame): 0.265\nStream size: 1.56 GiB (87%)\nWriting library: XviD 1.2.1 (UTC 2008-12-04)\n\nAudio\nID: 1\nFormat: AC-3\nFormat/Info: Audio Coding 3\nMode extension: CM (complete main)\nFormat settings, Endianness: Big\nCodec ID: 2000\nDuration: 2h 8mn\nBit rate mode: Constant\nBit rate: 256 Kbps\nChannel(s): 2 channels\nChannel positions: Front: L R\nSampling rate: 48.0 KHz\nBit depth: 16 bits\nCompression mode: Lossy\nStream size: 235 MiB (13%)\nAlignment: Split accross interleaves\nInterleave, duration: 33 ms (1.00 video frame)\nInterleave, preload duration: 500 ms\n\n\nhad to redo this great movie,it needed fixing a lot\nvideo was a bit dark, milky and low of colours\nwas rather complicated to fix , but turned out nice\n\nEncode:\n\nremoved watermarks, added brightness saturation ,fixed rgb,contrast,black base and white base, and added sharpness\ngot very nice and will do me till retail\nenjoy.\n\n &lt;a href=&quot;\nhttp://i.imgur.com/MyIQVEJ.png&quot; rel=&quot;nofollow&quot; target=&quot;_NEW&quot;&gt;\nhttp://i.imgur.com/MyIQVEJ.png&lt;/a&gt; &lt;a href=&quot;\nhttp://i.imgur.com/KNf7RiI.png&quot; rel=&quot;nofollow&quot; target=&quot;_NEW&quot;&gt;\nhttp://i.imgur.com/KNf7RiI.png&lt;/a&gt; &lt;a href=&quot;\nhttp://i.imgur.com/NMNiR4w.png&quot; rel=&quot;nofollow&quot; target=&quot;_NEW&quot;&gt;\nhttp://i.imgur.com/NMNiR4w.png&lt;/a&gt; &lt;a href=&quot;\nhttp://i.imgur.com/y9VCrE5.png&quot; rel=&quot;nofollow&quot; target=&quot;_NEW&quot;&gt;\nhttp://i.imgur.com/y9VCrE5.png&lt;/a&gt; &lt;a href=&quot;\nhttp://i.imgur.com/dXuhAD6.png&quot; rel=&quot;nofollow&quot; target=&quot;_NEW&quot;&gt;\nhttp://i.imgur.com/dXuhAD6.png&lt;/a&gt; &lt;a href=&quot;\nhttp://i.imgur.com/y9RJN77.png&quot; rel=&quot;nofollow&quot; target=&quot;_NEW&quot;&gt;\nhttp://i.imgur.com/y9RJN77.png&lt;/a&gt; &lt;a href=&quot;\nhttp://i.imgur.com/FxAymSP.png&quot; rel=&quot;nofollow&quot; target=&quot;_NEW&quot;&gt;\nhttp://i.imgur.com/FxAymSP.png&lt;/a&gt;",
  "parsed": {
    "xt": "urn:btih:9dcad142580f10480f2ce1aa19ac69251fb4d964",
    "dn": "Selma.2014.DVDScr.XVID.AC3.HQ.Hive-CM8",
    "tr": [
      "udp://exodus.desync.com:6969",
      "udp://open.demonii.com:1337",
      "udp://tracker.coppersurfer.tk:6969",
      "udp://tracker.openbittorrent.com:80"
    ],
    "infoHash": "9dcad142580f10480f2ce1aa19ac69251fb4d964",
    "infoHashBuffer": {
      "type": "Buffer",
      "data": [
        157,
        202,
        209,
        66,
        88,
        15,
        16,
        72,
        15,
        44,
        225,
        170,
        25,
        172,
        105,
        37,
        31,
        180,
        217,
        100
      ]
    },
    "name": "Selma.2014.DVDScr.XVID.AC3.HQ.Hive-CM8",
    "announce": [
      "udp://exodus.desync.com:6969",
      "udp://open.demonii.com:1337",
      "udp://tracker.coppersurfer.tk:6969",
      "udp://tracker.openbittorrent.com:80"
    ],
    "urlList": []
  },
  "previous": 30,
  "peers": 36,
  "last_updated": "2016-12-27T08:25:15.865Z"
}